<svg width="110" height="91" viewBox="0 0 110 91" fill="none" xmlns="http://www.w3.org/2000/svg">
<path fill-rule="evenodd" clip-rule="evenodd" d="M55.4806 1.8008C76.8393 2.14678 98.5211 12.738 104.114 33.3817C109.155 51.9858 91.7329 66.3768 75.9772 77.4532C61.324 87.7544 43.5279 96.0885 28.2791 86.694C9.14177 74.9038 -5.11403 53.1471 1.75053 31.7235C8.67245 10.1209 32.8263 1.43382 55.4806 1.8008Z" fill="#C3C4D0"/>
<mask id="path-2-inside-1_2097_149" fill="white">
<path fill-rule="evenodd" clip-rule="evenodd" d="M68.8251 1.05036C66.7957 1.60504 65.9823 2.18885 62.0612 5.90529C57.8922 9.85676 56.3556 11.4675 55.685 12.5891C53.3868 16.4338 53.8038 22.5497 56.6093 26.1426C61.2935 32.1419 70.9681 30.1541 73.2839 22.7166C73.4894 22.0565 73.6148 20.7995 73.7026 18.5196C73.8517 14.6567 74.1298 13.6058 75.5117 11.6829C76.4389 10.3931 78.227 8.90774 79.4091 8.44556L80.08 8.18329V9.89154V11.6L79.0538 12.5454C78.4292 13.121 77.8437 13.8653 77.5575 14.4477C77.1153 15.3471 77.0792 15.6001 76.9527 18.675C76.8575 20.9869 76.7193 22.3296 76.4814 23.2551C75.4764 27.1645 72.5717 30.4773 68.8476 31.9615C67.1396 32.6423 66.1609 32.8459 64.3114 32.9059L62.7424 32.9568L57.771 35.8684C47.2939 42.0045 42.4107 45.0233 40.8374 46.3368C36.8715 49.6471 34.9353 53.7836 34.9339 58.9474C34.9334 61.0171 35.2583 62.7962 35.9283 64.3923C36.0728 64.7363 36.1908 65.0587 36.1908 65.1088C36.1908 65.159 33.8811 65.2 31.058 65.2C25.3129 65.2 24.9067 65.2625 23.6397 66.3419C22.5141 67.3009 22 68.4467 22 69.9965C22 71.98 22.8614 73.3763 24.6592 74.3065L25.4337 74.7074L46.6497 74.7522C67.4566 74.7961 67.8784 74.7904 68.5296 74.4598C70.2593 73.5815 70.8736 71.6693 69.9827 69.9357C68.8538 67.7385 65.8673 65.7987 62.8372 65.2944L62.2035 65.1888L62.7042 64.1237C63.8616 61.6617 64.2131 58.522 63.6248 55.8977C63.2586 54.2631 62.268 52.1863 61.1899 50.7918L60.3145 49.6598L61.4319 48.5648L62.5493 47.47L63.3271 48.3174C64.9668 50.1045 66.4 53.1164 66.9199 55.8682C67.2036 57.3686 67.1933 59.8793 66.8972 61.3885L66.7881 61.9452H70.25H73.7117V67.0898C73.7117 71.332 73.7582 72.3451 73.9765 72.8652C74.3331 73.7145 74.7 74.0965 75.5189 74.4708C76.1494 74.7589 76.7771 74.7858 82.9715 74.7892C90.1526 74.7932 90.2077 74.7877 91.1566 73.9586C91.7032 73.4813 92.128 72.4492 92.128 71.5992C92.128 70.4606 91.5684 69.4278 90.2297 68.0954C88.9983 66.8697 87.2976 65.9107 85.5876 65.4777C84.8453 65.2897 84.6467 65.1693 84.6673 64.9192C84.6818 64.7438 84.8293 63.4662 84.9949 62.08L85.2962 59.5598L86.2718 58.8785C87.5978 57.953 89.4122 56.0988 90.3117 54.7504C92.2299 51.8751 93.0238 49.2207 93.0027 45.7542C92.9825 42.4883 92.1695 39.7819 90.417 37.1484C89.5096 35.7848 87.5941 33.6915 86.8998 33.3047C86.6568 33.1694 86.6203 32.7137 86.6203 29.8171V26.4852L91.9989 26.4827C98.1525 26.4798 98.6984 26.4039 101.164 25.2075C102.942 24.3448 104.701 22.9668 105.572 21.7549C106.396 20.6087 109.464 15.5065 109.775 14.7648C110.389 13.3027 109.706 11.5453 108.221 10.7636C107.834 10.56 106.928 10.4633 104.606 10.3777C99.791 10.2004 99.063 9.84288 94.4496 5.39069C91.7393 2.77488 91.1471 2.28769 90.0451 1.7671C89.3447 1.43614 88.3613 1.08085 87.8597 0.977555C86.4506 0.687194 69.9227 0.750405 68.8251 1.05036ZM90.8137 8.22063C92.4189 8.88821 92.7428 10.9385 91.4393 12.1815C90.7543 12.8347 89.3809 12.9656 88.565 12.4554C86.9604 11.4521 87.1795 9.00675 88.9439 8.22629C89.6127 7.93028 90.1122 7.9289 90.8137 8.22063Z"/>
</mask>
<path fill-rule="evenodd" clip-rule="evenodd" d="M68.8251 1.05036C66.7957 1.60504 65.9823 2.18885 62.0612 5.90529C57.8922 9.85676 56.3556 11.4675 55.685 12.5891C53.3868 16.4338 53.8038 22.5497 56.6093 26.1426C61.2935 32.1419 70.9681 30.1541 73.2839 22.7166C73.4894 22.0565 73.6148 20.7995 73.7026 18.5196C73.8517 14.6567 74.1298 13.6058 75.5117 11.6829C76.4389 10.3931 78.227 8.90774 79.4091 8.44556L80.08 8.18329V9.89154V11.6L79.0538 12.5454C78.4292 13.121 77.8437 13.8653 77.5575 14.4477C77.1153 15.3471 77.0792 15.6001 76.9527 18.675C76.8575 20.9869 76.7193 22.3296 76.4814 23.2551C75.4764 27.1645 72.5717 30.4773 68.8476 31.9615C67.1396 32.6423 66.1609 32.8459 64.3114 32.9059L62.7424 32.9568L57.771 35.8684C47.2939 42.0045 42.4107 45.0233 40.8374 46.3368C36.8715 49.6471 34.9353 53.7836 34.9339 58.9474C34.9334 61.0171 35.2583 62.7962 35.9283 64.3923C36.0728 64.7363 36.1908 65.0587 36.1908 65.1088C36.1908 65.159 33.8811 65.2 31.058 65.2C25.3129 65.2 24.9067 65.2625 23.6397 66.3419C22.5141 67.3009 22 68.4467 22 69.9965C22 71.98 22.8614 73.3763 24.6592 74.3065L25.4337 74.7074L46.6497 74.7522C67.4566 74.7961 67.8784 74.7904 68.5296 74.4598C70.2593 73.5815 70.8736 71.6693 69.9827 69.9357C68.8538 67.7385 65.8673 65.7987 62.8372 65.2944L62.2035 65.1888L62.7042 64.1237C63.8616 61.6617 64.2131 58.522 63.6248 55.8977C63.2586 54.2631 62.268 52.1863 61.1899 50.7918L60.3145 49.6598L61.4319 48.5648L62.5493 47.47L63.3271 48.3174C64.9668 50.1045 66.4 53.1164 66.9199 55.8682C67.2036 57.3686 67.1933 59.8793 66.8972 61.3885L66.7881 61.9452H70.25H73.7117V67.0898C73.7117 71.332 73.7582 72.3451 73.9765 72.8652C74.3331 73.7145 74.7 74.0965 75.5189 74.4708C76.1494 74.7589 76.7771 74.7858 82.9715 74.7892C90.1526 74.7932 90.2077 74.7877 91.1566 73.9586C91.7032 73.4813 92.128 72.4492 92.128 71.5992C92.128 70.4606 91.5684 69.4278 90.2297 68.0954C88.9983 66.8697 87.2976 65.9107 85.5876 65.4777C84.8453 65.2897 84.6467 65.1693 84.6673 64.9192C84.6818 64.7438 84.8293 63.4662 84.9949 62.08L85.2962 59.5598L86.2718 58.8785C87.5978 57.953 89.4122 56.0988 90.3117 54.7504C92.2299 51.8751 93.0238 49.2207 93.0027 45.7542C92.9825 42.4883 92.1695 39.7819 90.417 37.1484C89.5096 35.7848 87.5941 33.6915 86.8998 33.3047C86.6568 33.1694 86.6203 32.7137 86.6203 29.8171V26.4852L91.9989 26.4827C98.1525 26.4798 98.6984 26.4039 101.164 25.2075C102.942 24.3448 104.701 22.9668 105.572 21.7549C106.396 20.6087 109.464 15.5065 109.775 14.7648C110.389 13.3027 109.706 11.5453 108.221 10.7636C107.834 10.56 106.928 10.4633 104.606 10.3777C99.791 10.2004 99.063 9.84288 94.4496 5.39069C91.7393 2.77488 91.1471 2.28769 90.0451 1.7671C89.3447 1.43614 88.3613 1.08085 87.8597 0.977555C86.4506 0.687194 69.9227 0.750405 68.8251 1.05036ZM90.8137 8.22063C92.4189 8.88821 92.7428 10.9385 91.4393 12.1815C90.7543 12.8347 89.3809 12.9656 88.565 12.4554C86.9604 11.4521 87.1795 9.00675 88.9439 8.22629C89.6127 7.93028 90.1122 7.9289 90.8137 8.22063Z" stroke="#240401" stroke-width="6" mask="url(#path-2-inside-1_2097_149)"/>
</svg>
