<svg width="1833" height="1146" viewBox="0 0 1833 1146" fill="none" xmlns="http://www.w3.org/2000/svg">
<circle cx="167" cy="48" r="46.5" stroke="#D2D2DB" stroke-width="3"/>
<circle opacity="0.5" cx="1700" cy="186" r="34.5" stroke="#D2D2DB" stroke-width="3"/>
<circle cx="1675.5" cy="1073.5" r="44.5" fill="#F6F6F8"/>
<circle cx="217.5" cy="114.5" r="18" stroke="#D2D2DB" stroke-width="3"/>
<circle opacity="0.5" cx="1783.5" cy="250.5" r="23" stroke="#D2D2DB" stroke-width="3"/>
<circle opacity="0.5" cx="156.5" cy="573.5" r="23" stroke="#D2D2DB" stroke-width="3"/>
<circle cx="129.5" cy="104.5" r="19" stroke="#D2D2DB" stroke-width="3"/>
<circle opacity="0.5" cx="1756.5" cy="185.5" r="19" stroke="#D2D2DB" stroke-width="3"/>
<circle opacity="0.3" cx="1725.5" cy="894.5" r="19" stroke="#D2D2DB" stroke-width="3"/>
<circle cx="1678.5" cy="913.5" r="31.5" fill="#F6F6F8"/>
<circle opacity="0.3" cx="1752" cy="889" r="6.5" stroke="#D2D2DB" stroke-width="3"/>
<circle opacity="0.3" cx="1750" cy="903" r="6.5" stroke="#D2D2DB" stroke-width="3"/>
<circle opacity="0.5" cx="1793.5" cy="1125.5" r="19" stroke="#D2D2DB" stroke-width="3"/>
<circle cx="1778.5" cy="893.5" r="20.5" fill="#F6F6F8"/>
<circle cx="1693.5" cy="762.5" r="19" stroke="#D2D2DB" stroke-width="3"/>
<circle opacity="0.5" cx="1708.5" cy="326.5" r="19" stroke="#D2D2DB" stroke-width="3"/>
<circle opacity="0.5" cx="1805.5" cy="306.5" r="19" stroke="#D2D2DB" stroke-width="3"/>
<circle opacity="0.5" cx="178.5" cy="629.5" r="19" stroke="#D2D2DB" stroke-width="3"/>
<circle opacity="0.5" cx="1701.5" cy="136.5" r="12" stroke="#D2D2DB" stroke-width="3"/>
<circle opacity="0.5" cx="77.5" cy="27.5" r="8" stroke="#D2D2DB" stroke-width="3"/>
<circle opacity="0.5" cx="27" cy="107" r="22.5" stroke="#D2D2DB" stroke-width="3"/>
<circle opacity="0.5" cx="24" cy="152" r="22.5" stroke="#D2D2DB" stroke-width="3"/>
<circle opacity="0.5" cx="57" cy="132" r="14.5" stroke="#D2D2DB" stroke-width="3"/>
<circle opacity="0.5" cx="98" cy="185" r="9.5" stroke="#D2D2DB" stroke-width="3"/>
<circle cx="129.5" cy="131.5" r="5" stroke="#D2D2DB" stroke-width="3"/>
<circle opacity="0.5" cx="1691.5" cy="107.5" r="5" stroke="#D2D2DB" stroke-width="3"/>
<circle opacity="0.5" cx="1797.5" cy="73.5" r="5" stroke="#D2D2DB" stroke-width="3"/>
<circle opacity="0.5" cx="1687.5" cy="313.5" r="5" stroke="#D2D2DB" stroke-width="3"/>
<circle cx="1790.5" cy="822.5" r="5" stroke="#D2D2DB" stroke-width="3"/>
<circle cx="167" cy="104" r="6.5" stroke="#D2D2DB" stroke-width="3"/>
<circle opacity="0.5" cx="1682" cy="148" r="6.5" stroke="#D2D2DB" stroke-width="3"/>
<circle cx="197.5" cy="95.5" r="9" stroke="#D2D2DB" stroke-width="3"/>
<circle opacity="0.5" cx="1738.5" cy="208.5" r="9" stroke="#D2D2DB" stroke-width="3"/>
<circle opacity="0.5" cx="111.5" cy="531.5" r="9" stroke="#D2D2DB" stroke-width="3"/>
<circle cx="1710.5" cy="785.5" r="9" stroke="#D2D2DB" stroke-width="3"/>
<circle opacity="0.3" cx="1745.5" cy="873.5" r="9" stroke="#D2D2DB" stroke-width="3"/>
<circle opacity="0.5" cx="1654.5" cy="182.5" r="9" stroke="#D2D2DB" stroke-width="3"/>
<circle opacity="0.5" cx="1769.5" cy="279.5" r="9" stroke="#D2D2DB" stroke-width="3"/>
<circle opacity="0.5" cx="142.5" cy="602.5" r="9" stroke="#D2D2DB" stroke-width="3"/>
<circle cx="1793.5" cy="431.5" r="9" stroke="#D2D2DB" stroke-width="3"/>
<circle cx="1668.5" cy="992.5" r="10.5" fill="#F6F6F8"/>
<circle cx="1669.5" cy="972.5" r="10.5" fill="#F6F6F8"/>
<circle cx="215.5" cy="83.5" r="12" stroke="#D2D2DB" stroke-width="3"/>
<circle cx="1755.5" cy="986.5" r="76" stroke="#D2D2DB" stroke-width="3"/>
</svg>
