<svg width="123" height="127" viewBox="0 0 123 127" fill="none" xmlns="http://www.w3.org/2000/svg">
<path fill-rule="evenodd" clip-rule="evenodd" d="M30.647 25.0546C47.2734 12.7995 68.8773 23.1626 85.2926 35.2077C101.219 46.8939 116.156 64.1393 109.542 82.9457C103.106 101.245 80.4363 104.877 61.0725 104.073C44.9451 103.404 31.019 94.3832 25.2692 79.4501C18.0734 60.7618 14.2865 37.1137 30.647 25.0546Z" fill="#C3C4D0"/>
<mask id="path-2-inside-1_2101_142" fill="white">
<path fill-rule="evenodd" clip-rule="evenodd" d="M88.907 14.0241C84.9369 14.8988 81.9132 17.6184 80.6417 21.4581C80.2464 22.6521 80.2178 22.9431 80.1568 26.3929C80.0877 30.2993 80.1801 31.02 80.9417 32.5118C81.7065 34.0097 83.5624 35.2954 85.4723 35.6504C88.1431 36.1466 90.9778 34.6274 92.2638 32.0108L92.7063 31.1104L92.7511 22.4501L92.7957 13.7897L91.3264 13.8022C90.5181 13.8091 89.4294 13.9089 88.907 14.0241ZM97.5345 22.3061C97.5345 31.8999 97.5143 32.1014 96.3115 34.5113C95.5087 36.1192 93.3373 38.3222 91.7565 39.1323C88.7315 40.6824 85.5144 40.8923 82.463 39.7387C81.4038 39.3384 79.4459 38.0845 78.7945 37.3893L78.3384 36.9025L77.5876 38.1507C75.9438 40.8838 74.9224 41.9186 70.3856 45.4484C68.2349 47.1216 66.6262 48.5268 65.3691 49.83C61.5163 53.8245 58.8836 58.7807 57.8048 64.0697C57.2496 66.792 57.1484 69.7459 57.1986 81.7562C57.2456 93.003 57.2513 93.1799 57.5729 93.61C57.7524 93.8502 58.0959 94.1935 58.3364 94.3729C58.7693 94.696 58.9086 94.6994 73.2466 94.741L87.7197 94.783V93.0739C87.7197 90.4256 87.1638 88.8006 85.7017 87.1755C84.3848 85.7115 82.678 84.8909 80.4893 84.6691C79.0145 84.5198 78.557 84.29 77.9445 83.3907C77.6229 82.9184 77.5884 82.6795 77.5884 80.9217C77.5884 78.6546 77.4145 77.6723 76.7725 76.3112C75.6463 73.9238 73.3506 72.342 70.4465 71.9524C69.5759 71.8356 68.7427 71.6292 68.4999 71.4701C67.1475 70.5847 67.1269 68.3957 68.4631 67.5938C69.2289 67.1345 69.7236 67.0744 71.2205 67.2585C77.2664 68.002 81.7337 72.6911 82.3045 78.893L82.4166 80.1112L83.2407 80.3215C83.6941 80.4372 84.3145 80.636 84.6195 80.7633L85.1741 80.9949L85.22 76.1133C85.2642 71.4356 85.28 71.2132 85.5993 70.7855C86.1013 70.1129 86.8598 69.7345 87.6808 69.7468C88.4896 69.759 89.0308 70.0852 89.5798 70.8913C89.9354 71.4133 89.936 71.4267 89.936 78.1081V84.8022L90.5508 85.7525C91.8659 87.7856 92.4688 90.0509 92.4688 92.9581V94.7897L98.0772 94.7443C103.495 94.7006 103.701 94.6876 104.132 94.3661C105.07 93.6675 105.207 93.1966 105.265 90.4812C105.339 87.0765 105.131 85.5143 104.41 84.0513C103.702 82.6148 102.463 81.3606 101.082 80.6811L100.067 80.182V76.7346V73.2871L100.503 72.9755C101.167 72.5003 103.149 70.4446 103.874 69.4792C105.474 67.3502 106.763 64.5128 107.364 61.7975C107.702 60.2712 107.717 59.8422 107.782 49.578L107.849 38.9404L110.251 38.9391C114.719 38.9367 116.702 38.4837 118.803 36.9857C120.167 36.0128 121.138 34.8729 121.914 33.3311C122.877 31.42 123.047 30.3161 122.99 26.3456C122.938 22.6615 122.918 22.5829 121.853 21.7876C121.436 21.4766 121.182 21.4594 116.401 21.4171L111.386 21.3728L107.745 17.7469C105.743 15.7527 103.904 14.0466 103.658 13.9554C103.409 13.8626 101.963 13.7897 100.374 13.7897H97.5345V22.3061ZM43.0622 80.2682C42.0625 80.9354 41.9422 81.3957 42.019 84.2591C42.0935 87.0365 42.3155 87.9995 43.2775 89.7164C44.0427 91.0824 46.0954 93.0138 47.5108 93.6995C48.8952 94.3703 50.5744 94.7781 51.9518 94.7781C52.817 94.7781 52.9145 94.747 52.8168 94.5013C52.516 93.746 52.4244 91.8016 52.4214 86.1177L52.4182 79.9092H48.0091C43.6887 79.9092 43.5892 79.9164 43.0622 80.2682Z"/>
</mask>
<path fill-rule="evenodd" clip-rule="evenodd" d="M88.907 14.0241C84.9369 14.8988 81.9132 17.6184 80.6417 21.4581C80.2464 22.6521 80.2178 22.9431 80.1568 26.3929C80.0877 30.2993 80.1801 31.02 80.9417 32.5118C81.7065 34.0097 83.5624 35.2954 85.4723 35.6504C88.1431 36.1466 90.9778 34.6274 92.2638 32.0108L92.7063 31.1104L92.7511 22.4501L92.7957 13.7897L91.3264 13.8022C90.5181 13.8091 89.4294 13.9089 88.907 14.0241ZM97.5345 22.3061C97.5345 31.8999 97.5143 32.1014 96.3115 34.5113C95.5087 36.1192 93.3373 38.3222 91.7565 39.1323C88.7315 40.6824 85.5144 40.8923 82.463 39.7387C81.4038 39.3384 79.4459 38.0845 78.7945 37.3893L78.3384 36.9025L77.5876 38.1507C75.9438 40.8838 74.9224 41.9186 70.3856 45.4484C68.2349 47.1216 66.6262 48.5268 65.3691 49.83C61.5163 53.8245 58.8836 58.7807 57.8048 64.0697C57.2496 66.792 57.1484 69.7459 57.1986 81.7562C57.2456 93.003 57.2513 93.1799 57.5729 93.61C57.7524 93.8502 58.0959 94.1935 58.3364 94.3729C58.7693 94.696 58.9086 94.6994 73.2466 94.741L87.7197 94.783V93.0739C87.7197 90.4256 87.1638 88.8006 85.7017 87.1755C84.3848 85.7115 82.678 84.8909 80.4893 84.6691C79.0145 84.5198 78.557 84.29 77.9445 83.3907C77.6229 82.9184 77.5884 82.6795 77.5884 80.9217C77.5884 78.6546 77.4145 77.6723 76.7725 76.3112C75.6463 73.9238 73.3506 72.342 70.4465 71.9524C69.5759 71.8356 68.7427 71.6292 68.4999 71.4701C67.1475 70.5847 67.1269 68.3957 68.4631 67.5938C69.2289 67.1345 69.7236 67.0744 71.2205 67.2585C77.2664 68.002 81.7337 72.6911 82.3045 78.893L82.4166 80.1112L83.2407 80.3215C83.6941 80.4372 84.3145 80.636 84.6195 80.7633L85.1741 80.9949L85.22 76.1133C85.2642 71.4356 85.28 71.2132 85.5993 70.7855C86.1013 70.1129 86.8598 69.7345 87.6808 69.7468C88.4896 69.759 89.0308 70.0852 89.5798 70.8913C89.9354 71.4133 89.936 71.4267 89.936 78.1081V84.8022L90.5508 85.7525C91.8659 87.7856 92.4688 90.0509 92.4688 92.9581V94.7897L98.0772 94.7443C103.495 94.7006 103.701 94.6876 104.132 94.3661C105.07 93.6675 105.207 93.1966 105.265 90.4812C105.339 87.0765 105.131 85.5143 104.41 84.0513C103.702 82.6148 102.463 81.3606 101.082 80.6811L100.067 80.182V76.7346V73.2871L100.503 72.9755C101.167 72.5003 103.149 70.4446 103.874 69.4792C105.474 67.3502 106.763 64.5128 107.364 61.7975C107.702 60.2712 107.717 59.8422 107.782 49.578L107.849 38.9404L110.251 38.9391C114.719 38.9367 116.702 38.4837 118.803 36.9857C120.167 36.0128 121.138 34.8729 121.914 33.3311C122.877 31.42 123.047 30.3161 122.99 26.3456C122.938 22.6615 122.918 22.5829 121.853 21.7876C121.436 21.4766 121.182 21.4594 116.401 21.4171L111.386 21.3728L107.745 17.7469C105.743 15.7527 103.904 14.0466 103.658 13.9554C103.409 13.8626 101.963 13.7897 100.374 13.7897H97.5345V22.3061ZM43.0622 80.2682C42.0625 80.9354 41.9422 81.3957 42.019 84.2591C42.0935 87.0365 42.3155 87.9995 43.2775 89.7164C44.0427 91.0824 46.0954 93.0138 47.5108 93.6995C48.8952 94.3703 50.5744 94.7781 51.9518 94.7781C52.817 94.7781 52.9145 94.747 52.8168 94.5013C52.516 93.746 52.4244 91.8016 52.4214 86.1177L52.4182 79.9092H48.0091C43.6887 79.9092 43.5892 79.9164 43.0622 80.2682Z" stroke="#240401" stroke-width="6" mask="url(#path-2-inside-1_2101_142)"/>
</svg>
