<svg width="109" height="98" viewBox="0 0 109 98" fill="none" xmlns="http://www.w3.org/2000/svg">
<path fill-rule="evenodd" clip-rule="evenodd" d="M46.7045 7.78968C67.5567 7.7763 86.2083 21.4002 92.2989 41.4101C98.0865 60.4249 88.5464 80.2498 72.164 91.4343C57.283 101.594 38.1416 98.821 23.4143 88.4385C7.80157 77.4317 -4.0212 59.8576 1.2893 41.4685C7.08138 21.4118 25.8928 7.80304 46.7045 7.78968Z" fill="#C3C4D0"/>
<mask id="path-2-inside-1_2101_140" fill="white">
<path fill-rule="evenodd" clip-rule="evenodd" d="M93.1146 1.00713C94.2476 1.28221 95.839 2.06302 96.6427 2.73831C97.02 3.05531 98.575 4.68573 100.098 6.36108L102.867 9.40742L105.189 9.48651C107.266 9.55722 107.564 9.60293 108.007 9.91835C108.994 10.6223 109.039 10.8945 108.985 15.8568C108.937 20.3034 108.935 20.326 108.519 21.2112C107.602 23.1654 105.978 24.2688 103.677 24.5007C101.535 24.7165 100.298 25.5702 99.7533 27.2093C99.5129 27.9327 99.5159 27.9506 100.226 30.0731C101.315 33.3324 101.631 35.4963 101.527 38.9881C101.402 43.1734 100.694 45.9968 98.8612 49.6199L97.935 51.4512V62.084V72.7166L98.7179 72.8093C100.118 72.9751 101.443 73.953 102.175 75.3608C102.538 76.06 102.599 76.3947 102.653 77.9954C102.709 79.6239 102.678 79.9027 102.381 80.4848C102.16 80.9174 101.834 81.2487 101.422 81.4589C100.827 81.762 100.498 81.7773 94.6171 81.7773H88.4372V63.9751C88.4372 46.4455 88.4323 46.1634 88.1186 45.5487C87.7602 44.8468 86.8483 44.2873 86.0628 44.2873C85.2774 44.2873 84.3654 44.8468 84.007 45.5487C83.6933 46.1634 83.6884 46.4455 83.6884 63.9751V81.7773H82.1054H80.5225V79.0959C80.5225 75.0978 80.116 73.7545 78.3882 72.044C76.7895 70.4612 75.2446 69.9134 72.3801 69.9134H70.7434L70.6428 69.3776C70.4751 68.4844 69.7645 66.8925 69.047 65.803C67.0194 62.7239 63.6968 60.7649 60.018 60.4795C58.91 60.3936 58.6606 60.4245 58.0809 60.7201C57.3372 61.0993 56.7781 61.9896 56.7781 62.7951C56.7781 64.028 57.9501 65.1678 59.2176 65.1678C62.4168 65.1678 65.4293 67.6468 66.0994 70.8307C66.1964 71.2918 66.2759 71.9175 66.2759 72.2212C66.2759 73.0662 66.8153 73.972 67.5381 74.3405C68.0959 74.625 68.4687 74.659 71.0247 74.659C73.5807 74.659 73.9535 74.693 74.5113 74.9774C75.6026 75.5337 75.7736 76.1012 75.7736 79.1671V81.7897L64.9699 81.7419C54.2204 81.6941 54.1615 81.6921 53.2291 81.3395C50.5862 80.3397 48.7828 78.559 47.7736 75.9528L47.3644 74.8963L47.3108 68.0943C47.2498 60.3796 47.3627 58.6928 48.1474 55.5976C49.3629 50.8025 51.6894 46.8145 55.3023 43.3328C57.8316 40.8954 60.1626 39.3757 63.6559 37.8873C66.1038 36.8442 67.3633 36.1444 68.9294 34.9572C72.3174 32.3888 74.8382 28.9152 76.2536 24.8647L76.759 23.4185L77.3695 23.7299C78.8895 24.5046 81.4686 24.7449 83.2605 24.2786C86.0582 23.5503 88.3021 21.457 89.1969 18.7404C89.3688 18.2184 89.6713 16.714 89.8692 15.3974L90.2288 13.0038L89.9129 12.3919C89.0522 10.7254 86.7291 10.5986 85.7752 12.1662C85.6133 12.4322 85.3692 13.4396 85.2094 14.5008C84.8188 17.0982 84.5835 17.8536 83.9515 18.5433C82.8758 19.7167 80.9212 20.1223 79.4847 19.4702C78.332 18.947 77.8382 18.1624 76.7278 15.0894C75.4505 11.5549 75.2987 10.9595 75.2987 9.48524C75.2987 5.50877 78.1235 1.93425 81.9851 1.02453C83.2725 0.721127 91.8811 0.70784 93.1146 1.00713ZM42.5722 73.0195C42.6933 76.3781 43.3156 78.3681 45.0031 80.7944L45.6947 81.7887L37.9001 81.7435L30.1053 81.6982L29.5145 81.3311C28.3251 80.5922 27.7516 79.1839 28.1018 77.8622C28.599 75.986 30.6997 73.4349 32.7294 72.2425C33.2886 71.9141 34.316 71.4586 35.0125 71.2303C36.1581 70.8549 36.575 70.8083 39.383 70.7418L42.4874 70.6683L42.5722 73.0195Z"/>
</mask>
<path fill-rule="evenodd" clip-rule="evenodd" d="M93.1146 1.00713C94.2476 1.28221 95.839 2.06302 96.6427 2.73831C97.02 3.05531 98.575 4.68573 100.098 6.36108L102.867 9.40742L105.189 9.48651C107.266 9.55722 107.564 9.60293 108.007 9.91835C108.994 10.6223 109.039 10.8945 108.985 15.8568C108.937 20.3034 108.935 20.326 108.519 21.2112C107.602 23.1654 105.978 24.2688 103.677 24.5007C101.535 24.7165 100.298 25.5702 99.7533 27.2093C99.5129 27.9327 99.5159 27.9506 100.226 30.0731C101.315 33.3324 101.631 35.4963 101.527 38.9881C101.402 43.1734 100.694 45.9968 98.8612 49.6199L97.935 51.4512V62.084V72.7166L98.7179 72.8093C100.118 72.9751 101.443 73.953 102.175 75.3608C102.538 76.06 102.599 76.3947 102.653 77.9954C102.709 79.6239 102.678 79.9027 102.381 80.4848C102.16 80.9174 101.834 81.2487 101.422 81.4589C100.827 81.762 100.498 81.7773 94.6171 81.7773H88.4372V63.9751C88.4372 46.4455 88.4323 46.1634 88.1186 45.5487C87.7602 44.8468 86.8483 44.2873 86.0628 44.2873C85.2774 44.2873 84.3654 44.8468 84.007 45.5487C83.6933 46.1634 83.6884 46.4455 83.6884 63.9751V81.7773H82.1054H80.5225V79.0959C80.5225 75.0978 80.116 73.7545 78.3882 72.044C76.7895 70.4612 75.2446 69.9134 72.3801 69.9134H70.7434L70.6428 69.3776C70.4751 68.4844 69.7645 66.8925 69.047 65.803C67.0194 62.7239 63.6968 60.7649 60.018 60.4795C58.91 60.3936 58.6606 60.4245 58.0809 60.7201C57.3372 61.0993 56.7781 61.9896 56.7781 62.7951C56.7781 64.028 57.9501 65.1678 59.2176 65.1678C62.4168 65.1678 65.4293 67.6468 66.0994 70.8307C66.1964 71.2918 66.2759 71.9175 66.2759 72.2212C66.2759 73.0662 66.8153 73.972 67.5381 74.3405C68.0959 74.625 68.4687 74.659 71.0247 74.659C73.5807 74.659 73.9535 74.693 74.5113 74.9774C75.6026 75.5337 75.7736 76.1012 75.7736 79.1671V81.7897L64.9699 81.7419C54.2204 81.6941 54.1615 81.6921 53.2291 81.3395C50.5862 80.3397 48.7828 78.559 47.7736 75.9528L47.3644 74.8963L47.3108 68.0943C47.2498 60.3796 47.3627 58.6928 48.1474 55.5976C49.3629 50.8025 51.6894 46.8145 55.3023 43.3328C57.8316 40.8954 60.1626 39.3757 63.6559 37.8873C66.1038 36.8442 67.3633 36.1444 68.9294 34.9572C72.3174 32.3888 74.8382 28.9152 76.2536 24.8647L76.759 23.4185L77.3695 23.7299C78.8895 24.5046 81.4686 24.7449 83.2605 24.2786C86.0582 23.5503 88.3021 21.457 89.1969 18.7404C89.3688 18.2184 89.6713 16.714 89.8692 15.3974L90.2288 13.0038L89.9129 12.3919C89.0522 10.7254 86.7291 10.5986 85.7752 12.1662C85.6133 12.4322 85.3692 13.4396 85.2094 14.5008C84.8188 17.0982 84.5835 17.8536 83.9515 18.5433C82.8758 19.7167 80.9212 20.1223 79.4847 19.4702C78.332 18.947 77.8382 18.1624 76.7278 15.0894C75.4505 11.5549 75.2987 10.9595 75.2987 9.48524C75.2987 5.50877 78.1235 1.93425 81.9851 1.02453C83.2725 0.721127 91.8811 0.70784 93.1146 1.00713ZM42.5722 73.0195C42.6933 76.3781 43.3156 78.3681 45.0031 80.7944L45.6947 81.7887L37.9001 81.7435L30.1053 81.6982L29.5145 81.3311C28.3251 80.5922 27.7516 79.1839 28.1018 77.8622C28.599 75.986 30.6997 73.4349 32.7294 72.2425C33.2886 71.9141 34.316 71.4586 35.0125 71.2303C36.1581 70.8549 36.575 70.8083 39.383 70.7418L42.4874 70.6683L42.5722 73.0195Z" stroke="#240401" stroke-width="6" mask="url(#path-2-inside-1_2101_140)"/>
</svg>
